<svg width="64" height="64" viewBox="0 0 64 64" fill="none" xmlns="http://www.w3.org/2000/svg">
<g clip-path="url(#clip0_2747_17390)">
<g clip-path="url(#clip1_2747_17390)">
<path d="M15.215 4.795C11.785 6.93 8.90499 9.555 6.47999 12.75C2.47999 18.015 0.249985 24.315 0.0199854 31L-0.0150146 32H11.19H22.4V31.775C22.4 31.65 22.425 31.33 22.455 31.06C22.77 28.145 24.325 25.575 26.73 23.995L27.2 23.685L27.055 23.43C23.43 17.115 16.035 4.37 15.99 4.365C15.955 4.36 15.605 4.555 15.215 4.795Z" fill="#E6981C"/>
<path d="M46.685 6.56C44.665 10.065 36.84 23.62 36.82 23.655C36.81 23.675 36.985 23.805 37.205 23.95C39.355 25.35 40.9 27.61 41.395 30.075C41.505 30.625 41.6 31.42 41.6 31.775V32H52.81H64.015L63.98 31.01C63.865 27.765 63.31 24.69 62.295 21.725C60.035 15.1 55.68 9.42 49.825 5.47C48.97 4.895 48.09 4.35 48.015 4.35C47.985 4.35 47.39 5.345 46.685 6.56Z" fill="#E6981C"/>
<path d="M31.125 25.6751C27.75 26.1451 25.295 29.2451 25.645 32.5851C25.805 34.1451 26.405 35.4101 27.495 36.5051C28.59 37.5951 29.855 38.1951 31.41 38.3551C33.21 38.5451 35.08 37.8901 36.415 36.6051C38.76 34.3451 39.05 30.7651 37.1 28.1551C35.725 26.3151 33.41 25.3551 31.125 25.6751Z" fill="#E6981C"/>
<path d="M24.66 44.72C15.66 60.305 16.03 59.655 16.105 59.725C16.225 59.835 17.73 60.62 18.575 61.015C21.97 62.59 25.365 63.5 29.255 63.885C30.5 64.005 33.475 64.005 34.745 63.88C38.565 63.515 41.99 62.6 45.35 61.05C46.07 60.72 47.67 59.885 47.855 59.745L47.965 59.66L42.575 50.32C39.61 45.18 37.095 40.825 36.99 40.645L36.8 40.315L36.21 40.605C35.19 41.105 34.1 41.42 32.94 41.545C31.245 41.73 29.36 41.385 27.78 40.605L27.2 40.32L24.66 44.72Z" fill="#E6981C"/>
</g>
</g>
<defs>
<clipPath id="clip0_2747_17390">
<rect width="64" height="64" fill="white"/>
</clipPath>
<clipPath id="clip1_2747_17390">
<rect width="64" height="64" fill="white"/>
</clipPath>
</defs>
</svg>
